<?xml version="1.0" encoding="iso-8859-1"?>
<!-- Generator: Adobe Illustrator 19.1.0, SVG Export Plug-In . SVG Version: 6.00 Build 0)  -->
<svg xmlns="http://www.w3.org/2000/svg" xmlns:xlink="http://www.w3.org/1999/xlink" version="1.1" id="Capa_1" x="0px" y="0px" viewBox="0 0 540.727 540.727" style="enable-background:new 0 0 540.727 540.727;" xml:space="preserve" width="512px" height="512px">
<g>
	<g>
	</g>
	<g>
	</g>
	<g>
	</g>
	<g>
	</g>
	<g>
	</g>
	<g>
	</g>
	<g>
	</g>
	<g>
	</g>
	<g>
	</g>
	<g>
	</g>
	<g>
	</g>
	<g>
	</g>
	<g>
	</g>
	<g>
	</g>
	<g>
	</g>
</g>
<path d="M539.261,228.124L423.051,80.438c-1.102-1.398-2.709-2.119-4.443-2.428  c-10.048-13.323-26.655-21.647-46.305-21.647H167.477c-20.384,0-38.302,8.963-48.806,23.155c-0.397,0.321-0.771,0.593-1.092,1.001  L1.366,228.168c-1.199,1.519-1.634,3.416-1.204,5.25c0.425,1.839,1.456,3.406,3.224,4.338l104.996,55.338v186.105  c0,0.822,1,1.624,1,2.441v2.724h319v-2.715c0-0.817,1-1.624,1-2.451v-184.59l107.863-56.867c1.768-0.932,2.911-2.513,3.337-4.347  C541.012,231.559,540.46,229.644,539.261,228.124z M342.202,70.363c-7.666,30-37.144,52.926-72.312,52.926  c-35.164,0-64.641-22.926-72.307-52.926H342.202z M108.382,277.793l-91-47.867l91-115.646V277.793z M414.382,470.363h-291v-361.04  l6.287-20.901c7.755-11.141,21.704-18.059,37.809-18.059h15.481c7.912,38,43.836,66.135,86.932,66.135  c43.1,0,79.024-28.135,86.936-66.135h15.477c24.531,0,42.078,16.042,42.078,38.652V470.363z M432.382,277.788V114.275l91,115.646  L432.382,277.788z" fill="#999999"/>
<g>
</g>
<g>
</g>
<g>
</g>
<g>
</g>
<g>
</g>
<g>
</g>
<g>
</g>
<g>
</g>
<g>
</g>
<g>
</g>
<g>
</g>
<g>
</g>
<g>
</g>
<g>
</g>
<g>
</g>
</svg>
