<?xml version="1.0" encoding="utf-8"?>
<!-- Generator: Adobe Illustrator 17.0.0, SVG Export Plug-In . SVG Version: 6.00 Build 0)  -->
<!DOCTYPE svg PUBLIC "-//W3C//DTD SVG 1.1//EN" "http://www.w3.org/Graphics/SVG/1.1/DTD/svg11.dtd">
<svg version="1.1" id="Layer_1" xmlns="http://www.w3.org/2000/svg" xmlns:xlink="http://www.w3.org/1999/xlink" x="0px" y="0px"
	 width="205.067px" height="41.493px" viewBox="0 1.69 205.067 41.493" enable-background="new 0 1.69 205.067 41.493"
	 xml:space="preserve">
<rect x="15.829" y="17.356" fill="#FFFFFF" stroke="#A3A3A3" stroke-width="5" stroke-miterlimit="10" width="23.327" height="23.327"/>
<line fill="none" stroke="#A3A3A3" stroke-width="5" stroke-miterlimit="10" x1="39.156" y1="15.69" x2="39.156" y2="1.69"/>
<rect x="2.5" y="4.297" fill="#FFFFFF" stroke="#A3A3A3" stroke-width="5" stroke-miterlimit="10" width="23.327" height="23.327"/>
<line fill="none" stroke="#A3A3A3" stroke-width="5" stroke-miterlimit="10" x1="2.523" y1="26.158" x2="2.523" y2="43.158"/>
<rect x="296.828" y="-205.6" display="none" fill="#FFFFFF" stroke="#00A0C6" stroke-width="40" stroke-miterlimit="10" width="300" height="391"/>
<line fill="none" stroke="#A3A3A3" stroke-width="5" stroke-miterlimit="10" x1="5.832" y1="43.182" x2="5.832" y2="39.182"/>
<line fill="none" stroke="#A3A3A3" stroke-width="5" stroke-miterlimit="10" x1="35.824" y1="5.692" x2="35.824" y2="1.692"/>
<g>
	<path fill="#A3A3A3" d="M49.043,13.987h5.547c1.251,0,2.205,0.096,2.861,0.287c0.882,0.26,1.637,0.722,2.266,1.384
		c0.629,0.664,1.107,1.476,1.436,2.436c0.328,0.961,0.492,2.146,0.492,3.553c0,1.238-0.154,2.305-0.461,3.199
		c-0.376,1.095-0.913,1.979-1.61,2.656c-0.526,0.513-1.237,0.912-2.133,1.199c-0.67,0.213-1.565,0.318-2.687,0.318h-5.711V13.987z
		 M52.078,16.53v9.956h2.266c0.848,0,1.459-0.047,1.835-0.143c0.492-0.123,0.9-0.332,1.226-0.626
		c0.324-0.294,0.589-0.777,0.794-1.451c0.205-0.673,0.308-1.591,0.308-2.753s-0.103-2.054-0.308-2.676s-0.492-1.107-0.861-1.457
		c-0.369-0.348-0.837-0.584-1.405-0.707c-0.424-0.096-1.254-0.144-2.492-0.144H52.078z"/>
	<path fill="#A3A3A3" d="M64.219,29.02V13.987h11.146v2.543h-8.111v3.333h7.547v2.532h-7.547v4.091h8.398v2.533H64.219z"/>
	<path fill="#A3A3A3" d="M77.457,24.129l2.953-0.287c0.178,0.991,0.538,1.719,1.082,2.184c0.543,0.465,1.276,0.697,2.199,0.697
		c0.978,0,1.714-0.207,2.21-0.62c0.495-0.414,0.743-0.897,0.743-1.451c0-0.355-0.104-0.658-0.313-0.907
		c-0.209-0.25-0.573-0.467-1.092-0.651c-0.355-0.123-1.166-0.342-2.43-0.656c-1.627-0.403-2.769-0.898-3.425-1.487
		C78.462,20.123,78,19.114,78,17.925c0-0.766,0.217-1.481,0.651-2.148c0.434-0.666,1.06-1.174,1.877-1.522
		c0.816-0.349,1.803-0.523,2.958-0.523c1.887,0,3.307,0.414,4.261,1.241c0.953,0.827,1.454,1.932,1.502,3.312l-3.035,0.134
		c-0.13-0.772-0.409-1.328-0.836-1.666c-0.427-0.339-1.068-0.508-1.922-0.508c-0.882,0-1.572,0.182-2.071,0.544
		c-0.321,0.232-0.482,0.543-0.482,0.933c0,0.355,0.15,0.66,0.451,0.913c0.383,0.321,1.313,0.656,2.789,1.004
		c1.477,0.35,2.568,0.71,3.276,1.082c0.707,0.373,1.261,0.882,1.661,1.528c0.399,0.646,0.6,1.444,0.6,2.394
		c0,0.861-0.239,1.669-0.718,2.42c-0.479,0.753-1.155,1.312-2.03,1.677c-0.875,0.366-1.965,0.549-3.271,0.549
		c-1.9,0-3.36-0.439-4.378-1.317C78.263,27.09,77.655,25.811,77.457,24.129z"/>
	<path fill="#A3A3A3" d="M92.14,29.02V13.987h3.035V29.02H92.14z"/>
	<path fill="#A3A3A3" d="M105.06,23.492V20.96h6.542v5.988c-0.636,0.615-1.557,1.157-2.763,1.625
		c-1.207,0.469-2.429,0.702-3.666,0.702c-1.572,0-2.943-0.329-4.112-0.989c-1.169-0.659-2.047-1.603-2.635-2.83
		c-0.588-1.227-0.882-2.562-0.882-4.004c0-1.565,0.328-2.956,0.984-4.173s1.617-2.15,2.881-2.8c0.964-0.499,2.164-0.749,3.599-0.749
		c1.866,0,3.324,0.392,4.373,1.175c1.049,0.782,1.725,1.864,2.025,3.245l-3.015,0.564c-0.212-0.738-0.61-1.321-1.194-1.749
		c-0.585-0.427-1.314-0.641-2.189-0.641c-1.326,0-2.381,0.421-3.163,1.261c-0.783,0.842-1.174,2.089-1.174,3.743
		c0,1.784,0.396,3.122,1.189,4.015c0.793,0.892,1.832,1.338,3.117,1.338c0.636,0,1.273-0.125,1.913-0.374
		c0.639-0.25,1.188-0.552,1.646-0.907v-1.908H105.06z"/>
	<path fill="#A3A3A3" d="M114.432,29.02V13.987h2.953l6.152,10.038V13.987h2.82V29.02h-3.045l-6.06-9.803v9.803H114.432z"/>
	<path fill="#A3A3A3" d="M129.567,29.02V13.987h11.146v2.543h-8.111v3.333h7.547v2.532h-7.547v4.091H141v2.533H129.567z"/>
	<path fill="#A3A3A3" d="M143.584,29.02V13.987h6.388c1.606,0,2.774,0.135,3.501,0.405c0.729,0.27,1.311,0.75,1.749,1.44
		s0.656,1.48,0.656,2.368c0,1.129-0.332,2.06-0.995,2.795c-0.663,0.734-1.654,1.198-2.974,1.389
		c0.656,0.384,1.198,0.804,1.625,1.262s1.003,1.271,1.728,2.44l1.835,2.933h-3.63l-2.194-3.271c-0.779-1.168-1.313-1.905-1.6-2.209
		c-0.287-0.305-0.591-0.513-0.913-0.626c-0.321-0.112-0.831-0.169-1.528-0.169h-0.615v6.275H143.584z M146.619,20.345h2.246
		c1.456,0,2.365-0.062,2.728-0.185s0.646-0.335,0.851-0.636s0.308-0.677,0.308-1.128c0-0.506-0.135-0.914-0.405-1.226
		c-0.27-0.311-0.651-0.507-1.143-0.589c-0.246-0.034-0.984-0.052-2.215-0.052h-2.369V20.345z"/>
	<path fill="#A3A3A3" d="M177.351,29.02h-3.302l-1.313-3.414h-6.009l-1.241,3.414h-3.22l5.855-15.032h3.209L177.351,29.02z
		 M171.762,23.072l-2.071-5.578l-2.03,5.578H171.762z"/>
	<path fill="#A3A3A3" d="M178.959,29.02V13.987h4.871c1.846,0,3.049,0.075,3.609,0.226c0.861,0.226,1.582,0.716,2.164,1.472
		c0.58,0.755,0.871,1.731,0.871,2.927c0,0.924-0.168,1.699-0.502,2.328c-0.336,0.629-0.761,1.123-1.277,1.481
		c-0.516,0.359-1.041,0.597-1.574,0.713c-0.725,0.144-1.773,0.216-3.147,0.216h-1.979v5.67H178.959z M181.994,16.53v4.266h1.662
		c1.195,0,1.995-0.078,2.398-0.235s0.72-0.403,0.949-0.738c0.229-0.335,0.344-0.725,0.344-1.17c0-0.546-0.161-0.997-0.482-1.354
		c-0.321-0.354-0.729-0.577-1.221-0.666c-0.362-0.068-1.09-0.103-2.184-0.103H181.994z"/>
	<path fill="#A3A3A3" d="M192.967,29.02V13.987h4.871c1.846,0,3.049,0.075,3.609,0.226c0.861,0.226,1.582,0.716,2.164,1.472
		c0.58,0.755,0.871,1.731,0.871,2.927c0,0.924-0.168,1.699-0.502,2.328c-0.336,0.629-0.761,1.123-1.277,1.481
		c-0.516,0.359-1.041,0.597-1.574,0.713c-0.725,0.144-1.773,0.216-3.147,0.216h-1.979v5.67H192.967z M196.002,16.53v4.266h1.662
		c1.195,0,1.995-0.078,2.398-0.235s0.72-0.403,0.949-0.738c0.229-0.335,0.344-0.725,0.344-1.17c0-0.546-0.161-0.997-0.482-1.354
		c-0.321-0.354-0.729-0.577-1.221-0.666c-0.362-0.068-1.09-0.103-2.184-0.103H196.002z"/>
</g>
</svg>
