<?xml version="1.0" encoding="utf-8"?>
<!-- Generator: Adobe Illustrator 17.0.0, SVG Export Plug-In . SVG Version: 6.00 Build 0)  -->
<!DOCTYPE svg PUBLIC "-//W3C//DTD SVG 1.1//EN" "http://www.w3.org/Graphics/SVG/1.1/DTD/svg11.dtd">
<svg version="1.1" id="Layer_1" xmlns="http://www.w3.org/2000/svg" xmlns:xlink="http://www.w3.org/1999/xlink" x="0px" y="0px"
	 width="20px" height="20px" viewBox="0 0 20 20" enable-background="new 0 0 20 20" xml:space="preserve">
<path fill="#FF5B00" d="M15.5,2H12V1.5C12,0.673,11.327,0,10.5,0h-2C7.673,0,7,0.673,7,1.5V2H3.5C2.673,2,2,2.673,2,3.5v1
	c0,0.652,0.418,1.208,1,1.414V18.5C3,19.327,3.673,20,4.5,20h10c0.827,0,1.5-0.673,1.5-1.5V5.914c0.582-0.206,1-0.762,1-1.414v-1
	C17,2.673,16.327,2,15.5,2z M8,1.5C8,1.224,8.224,1,8.5,1h2C10.776,1,11,1.224,11,1.5V2H8V1.5z M14.5,19h-10
	C4.224,19,4,18.776,4,18.5V6h11v12.5C15,18.776,14.776,19,14.5,19z M16,4.5C16,4.776,15.776,5,15.5,5h-12C3.224,5,3,4.776,3,4.5v-1
	C3,3.224,3.224,3,3.5,3h12C15.776,3,16,3.224,16,3.5V4.5z"/>
<path d="M12.5,7C12.224,7,12,7.224,12,7.5v10c0,0.276,0.224,0.5,0.5,0.5s0.5-0.224,0.5-0.5v-10C13,7.224,12.776,7,12.5,7z"/>
<path d="M9.5,7C9.224,7,9,7.224,9,7.5v10C9,17.776,9.224,18,9.5,18s0.5-0.224,0.5-0.5v-10C10,7.224,9.776,7,9.5,7z"/>
<path d="M6.5,7C6.224,7,6,7.224,6,7.5v10C6,17.776,6.224,18,6.5,18S7,17.776,7,17.5v-10C7,7.224,6.776,7,6.5,7z"/>
</svg>
