<?xml version="1.0" encoding="iso-8859-1"?>
<!-- Generator: Adobe Illustrator 19.0.0, SVG Export Plug-In . SVG Version: 6.00 Build 0)  -->
<svg xmlns="http://www.w3.org/2000/svg" xmlns:xlink="http://www.w3.org/1999/xlink" version="1.1" id="Capa_1" x="0px" y="0px" viewBox="0 0 418.087 418.087" style="enable-background:new 0 0 418.087 418.087;" xml:space="preserve" width="512px" height="512px">
<path id="XMLID_558_" d="M411.087,188.575h-7.534c-4.64-44.426-24.455-86.052-56.221-117.817  c-18.875-18.875-41.229-33.529-65.585-43.288h69.693c2.865,7.85,10.407,13.469,19.236,13.469c11.287,0,20.47-9.182,20.47-20.469  c0-11.287-9.183-20.47-20.47-20.47c-8.829,0-16.371,5.62-19.236,13.47H229.513V7c0-3.866-3.134-7-7-7h-26.939c-3.866,0-7,3.134-7,7  v6.471H66.646C63.78,5.62,56.238,0,47.409,0c-11.287,0-20.469,9.183-20.469,20.47c0,11.287,9.183,20.469,20.469,20.469  c8.83,0,16.372-5.619,19.237-13.469h69.698C111.989,37.229,89.63,51.886,70.755,70.76c-31.767,31.765-51.581,73.39-56.221,117.815H7  c-3.866,0-7,3.134-7,7v26.94c0,3.866,3.134,7,7,7h7.542c4.64,44.424,24.453,86.049,56.217,117.813  c31.764,31.765,73.389,51.578,117.813,56.217v7.542c0,3.866,3.134,7,7,7h26.939c3.866,0,7-3.134,7-7v-7.541  c44.425-4.639,86.05-24.451,117.815-56.216s51.578-73.39,56.218-117.815h7.541c3.866,0,7-3.134,7-7v-26.94  C418.087,191.709,414.953,188.575,411.087,188.575z M370.676,14c3.568,0,6.47,2.902,6.47,6.47c0,3.567-2.902,6.469-6.47,6.469  c-3.567,0-6.469-2.902-6.469-6.469C364.208,16.903,367.109,14,370.676,14z M47.409,26.939c-3.567,0-6.469-2.902-6.469-6.469  c0-3.568,2.902-6.47,6.469-6.47s6.47,2.902,6.47,6.47C53.878,24.038,50.976,26.939,47.409,26.939z M202.573,21.027  c0-0.043,0-0.086,0-0.129V14h12.939v6.897c0,0.043,0,0.086,0,0.129v5.913h-12.939V21.027z M26.939,215.515h-5.921  c-0.036,0-0.074,0-0.11,0H14v-12.94h6.891c0.042,0,0.086,0,0.13,0h5.919V215.515z M215.513,397.061c0,0.042,0,0.086,0,0.128v6.897  h-12.939v-6.898c0-0.043,0-0.086,0-0.129v-5.913h12.939V397.061z M384.147,229.515h5.316  c-9.425,83.554-76.399,150.527-159.951,159.949v-5.316c0-3.866-3.134-7-7-7h-26.939c-3.866,0-7,3.134-7,7v5.315  c-83.551-9.424-150.523-76.397-159.948-159.948h5.314c3.866,0,7-3.134,7-7v-26.94c0-3.866-3.134-7-7-7h-5.322  c9.424-83.552,76.401-150.525,159.956-159.951v5.315c0,3.866,3.134,7,7,7h26.939c3.866,0,7-3.134,7-7v-5.316  c83.556,9.423,150.533,76.397,159.958,159.952h-5.323c-3.866,0-7,3.134-7,7v26.94C377.147,226.381,380.281,229.515,384.147,229.515z   M404.087,215.515h-6.906c-0.037,0-0.074,0-0.11,0h-5.923v-12.94h5.92c0.044,0,0.087,0,0.13,0h6.89V215.515z" fill="#FFFFFF"/>
<g>
</g>
<g>
</g>
<g>
</g>
<g>
</g>
<g>
</g>
<g>
</g>
<g>
</g>
<g>
</g>
<g>
</g>
<g>
</g>
<g>
</g>
<g>
</g>
<g>
</g>
<g>
</g>
<g>
</g>
</svg>
