<?xml version="1.0" encoding="utf-8"?>
<!-- Generator: Adobe Illustrator 17.0.0, SVG Export Plug-In . SVG Version: 6.00 Build 0)  -->
<!DOCTYPE svg PUBLIC "-//W3C//DTD SVG 1.1//EN" "http://www.w3.org/Graphics/SVG/1.1/DTD/svg11.dtd">
<svg version="1.1" id="Capa_1" xmlns="http://www.w3.org/2000/svg" xmlns:xlink="http://www.w3.org/1999/xlink" x="0px" y="0px"
	 width="60px" height="59.604px" viewBox="226 226.197 60 59.604" enable-background="new 226 226.197 60 59.604"
	 xml:space="preserve">
<g display="none">
	<path display="inline" fill="#999999" d="M285.057,226.197h-43.161c-0.521,0-0.943,0.423-0.943,0.944v3.77h-6.999
		c-0.271,0-0.531,0.118-0.71,0.322c-0.179,0.206-0.26,0.477-0.225,0.747l0.367,2.709h-6.442c-0.296,0-0.577,0.14-0.755,0.377
		c-0.178,0.237-0.234,0.544-0.15,0.831l14.358,49.224c0.12,0.413,0.496,0.681,0.907,0.681c0.087,0,43.753,0,43.753,0
		c0.521,0,0.944-0.421,0.944-0.944v-57.716C286,226.62,285.577,226.197,285.057,226.197z M240.953,232.799v43.719l-5.918-43.719
		H240.953L240.953,232.799z M233.641,236.576l4.711,34.794l-10.15-34.794H233.641z M284.113,283.914h-41.274v-55.829h41.275
		L284.113,283.914L284.113,283.914L284.113,283.914z M259.348,235.538h-15.003v-4.247h15.002L259.348,235.538L259.348,235.538z
		 M282.701,235.538h-15.003v-4.247h15.002L282.701,235.538L282.701,235.538z M260.316,233.415c0-1.745,1.415-3.161,3.16-3.161
		c1.745,0,3.162,1.416,3.162,3.161c0,1.746-1.417,3.161-3.162,3.161C261.731,236.576,260.316,235.161,260.316,233.415z
		 M280.477,256.424h-12.778v-14.343h12.778L280.477,256.424L280.477,256.424z M261.589,244.189h-15.71v-1.573h15.71V244.189z
		 M245.879,248.654h15.71v1.573h-15.71V248.654z M246.056,254.83h15.71v1.573h-15.71V254.83z M245.879,261.051h34.598v1.573h-34.598
		V261.051z M245.879,267.263h34.598v1.573h-34.598V267.263z M245.879,273.395h34.598v1.574h-34.598V273.395z"/>
</g>
<rect x="267.699" y="242.081" display="none" fill="#333333" width="12.778" height="14.343"/>
<g>
	<g>
		<path fill="#999999" d="M241.628,226.197h-2v1h1v1.571h1V226.197L241.628,226.197z M237.628,226.197h-2v1h2V226.197
			L237.628,226.197z M233.628,226.197h-2v1h2V226.197L233.628,226.197z M229.628,226.197h-2v1h2V226.197L229.628,226.197z
			 M227,226.57h-1v2h1V226.57L227,226.57z M227,230.57h-1v2h1V230.57L227,230.57z M227,234.57h-1v2h1V234.57L227,234.57z
			 M227,238.57h-1v2h1V238.57L227,238.57z M228.715,240.855h-2v1h2V240.855L228.715,240.855z M232.715,240.855h-2v1h2V240.855
			L232.715,240.855z M236.715,240.855h-2v1h2V240.855L236.715,240.855z M240.715,240.855h-2v1h2V240.855L240.715,240.855z
			 M241.628,238.768h-1v2h1V238.768L241.628,238.768z M241.628,234.768h-1v2h1V234.768L241.628,234.768z M241.628,230.768h-1v2h1
			V230.768L241.628,230.768z"/>
	</g>
</g>
<g>
	<g>
		<path fill="#999999" d="M256.392,226.197h-2v1h1v1.571h1V226.197L256.392,226.197z M252.392,226.197h-2v1h2V226.197
			L252.392,226.197z M248.392,226.197h-2v1h2V226.197L248.392,226.197z M244.392,226.197h-2v1h2V226.197L244.392,226.197z
			 M241.765,226.57h-1v2h1V226.57L241.765,226.57z M241.765,230.57h-1v2h1V230.57L241.765,230.57z M241.765,234.57h-1v2h1V234.57
			L241.765,234.57z M241.765,238.57h-1v2h1V238.57L241.765,238.57z M243.48,240.855h-2v1h2V240.855L243.48,240.855z M247.48,240.855
			h-2v1h2V240.855L247.48,240.855z M251.48,240.855h-2v1h2V240.855L251.48,240.855z M255.48,240.855h-2v1h2V240.855L255.48,240.855z
			 M256.392,238.768h-1v2h1V238.768L256.392,238.768z M256.392,234.768h-1v2h1V234.768L256.392,234.768z M256.392,230.768h-1v2h1
			V230.768L256.392,230.768z"/>
	</g>
</g>
<g>
	<g>
		<path fill="#999999" d="M271.235,226.197h-2v1h1v1.571h1V226.197L271.235,226.197z M267.235,226.197h-2v1h2V226.197
			L267.235,226.197z M263.235,226.197h-2v1h2V226.197L263.235,226.197z M259.235,226.197h-2v1h2V226.197L259.235,226.197z
			 M256.608,226.57h-1v2h1V226.57L256.608,226.57z M256.608,230.57h-1v2h1V230.57L256.608,230.57z M256.608,234.57h-1v2h1V234.57
			L256.608,234.57z M256.608,238.57h-1v2h1V238.57L256.608,238.57z M258.322,240.855h-2v1h2V240.855L258.322,240.855z
			 M262.322,240.855h-2v1h2V240.855L262.322,240.855z M266.322,240.855h-2v1h2V240.855L266.322,240.855z M270.322,240.855h-2v1h2
			V240.855L270.322,240.855z M271.235,238.768h-1v2h1V238.768L271.235,238.768z M271.235,234.768h-1v2h1V234.768L271.235,234.768z
			 M271.235,230.768h-1v2h1V230.768L271.235,230.768z"/>
	</g>
</g>
<g>
	<g>
		<path fill="#999999" d="M286,226.197h-2v1h1v1.571h1V226.197L286,226.197z M282,226.197h-2v1h2V226.197L282,226.197z M278,226.197
			h-2v1h2V226.197L278,226.197z M274,226.197h-2v1h2V226.197L274,226.197z M271.373,226.57h-1v2h1V226.57L271.373,226.57z
			 M271.373,230.57h-1v2h1V230.57L271.373,230.57z M271.373,234.57h-1v2h1V234.57L271.373,234.57z M271.373,238.57h-1v2h1V238.57
			L271.373,238.57z M273.087,240.855h-2v1h2V240.855L273.087,240.855z M277.087,240.855h-2v1h2V240.855L277.087,240.855z
			 M281.087,240.855h-2v1h2V240.855L281.087,240.855z M285.087,240.855h-2v1h2V240.855L285.087,240.855z M286,238.768h-1v2h1
			V238.768L286,238.768z M286,234.768h-1v2h1V234.768L286,234.768z M286,230.768h-1v2h1V230.768L286,230.768z"/>
	</g>
</g>
<g>
	<g>
		<path fill="#999999" d="M241.628,240.932h-2v1h1v1.571h1V240.932L241.628,240.932z M237.628,240.932h-2v1h2V240.932
			L237.628,240.932z M233.628,240.932h-2v1h2V240.932L233.628,240.932z M229.628,240.932h-2v1h2V240.932L229.628,240.932z
			 M227,241.305h-1v2h1V241.305L227,241.305z M227,245.305h-1v2h1V245.305L227,245.305z M227,249.305h-1v2h1V249.305L227,249.305z
			 M227,253.305h-1v2h1V253.305L227,253.305z M228.715,255.59h-2v1h2V255.59L228.715,255.59z M232.715,255.59h-2v1h2V255.59
			L232.715,255.59z M236.715,255.59h-2v1h2V255.59L236.715,255.59z M240.715,255.59h-2v1h2V255.59L240.715,255.59z M241.628,253.503
			h-1v2h1V253.503L241.628,253.503z M241.628,249.503h-1v2h1V249.503L241.628,249.503z M241.628,245.503h-1v2h1V245.503
			L241.628,245.503z"/>
	</g>
</g>
<g>
	<g>
		<rect x="240.765" y="240.932" fill="#999999" width="15.627" height="15.658"/>
	</g>
</g>
<g>
	<g>
		<path fill="#999999" d="M270.235,241.932v13.658h-13.627v-13.658H270.235 M271.235,240.932h-15.627v15.658h15.627V240.932
			L271.235,240.932z"/>
	</g>
</g>
<g>
	<g>
		<path fill="#999999" d="M286,240.932h-2v1h1v1.571h1V240.932L286,240.932z M282,240.932h-2v1h2V240.932L282,240.932z M278,240.932
			h-2v1h2V240.932L278,240.932z M274,240.932h-2v1h2V240.932L274,240.932z M271.373,241.305h-1v2h1V241.305L271.373,241.305z
			 M271.373,245.305h-1v2h1V245.305L271.373,245.305z M271.373,249.305h-1v2h1V249.305L271.373,249.305z M271.373,253.305h-1v2h1
			V253.305L271.373,253.305z M273.087,255.59h-2v1h2V255.59L273.087,255.59z M277.087,255.59h-2v1h2V255.59L277.087,255.59z
			 M281.087,255.59h-2v1h2V255.59L281.087,255.59z M285.087,255.59h-2v1h2V255.59L285.087,255.59z M286,253.503h-1v2h1V253.503
			L286,253.503z M286,249.503h-1v2h1V249.503L286,249.503z M286,245.503h-1v2h1V245.503L286,245.503z"/>
	</g>
</g>
<g>
	<g>
		<path fill="#999999" d="M241.628,255.409h-2v1h1v1.571h1V255.409L241.628,255.409z M237.628,255.409h-2v1h2V255.409
			L237.628,255.409z M233.628,255.409h-2v1h2V255.409L233.628,255.409z M229.628,255.409h-2v1h2V255.409L229.628,255.409z
			 M227,255.782h-1v2h1V255.782L227,255.782z M227,259.782h-1v2h1V259.782L227,259.782z M227,263.782h-1v2h1V263.782L227,263.782z
			 M227,267.782h-1v2h1V267.782L227,267.782z M228.715,270.067h-2v1h2V270.067L228.715,270.067z M232.715,270.067h-2v1h2V270.067
			L232.715,270.067z M236.715,270.067h-2v1h2V270.067L236.715,270.067z M240.715,270.067h-2v1h2V270.067L240.715,270.067z
			 M241.628,267.98h-1v2h1V267.98L241.628,267.98z M241.628,263.98h-1v2h1V263.98L241.628,263.98z M241.628,259.98h-1v2h1V259.98
			L241.628,259.98z"/>
	</g>
</g>
<g>
	<g>
		<rect x="240.765" y="255.409" fill="#999999" width="15.627" height="15.658"/>
	</g>
</g>
<g>
	<g>
		<rect x="255.608" y="255.409" fill="#999999" width="15.627" height="15.658"/>
	</g>
</g>
<g>
	<g>
		<path fill="#999999" d="M286,255.409h-2v1h1v1.571h1V255.409L286,255.409z M282,255.409h-2v1h2V255.409L282,255.409z M278,255.409
			h-2v1h2V255.409L278,255.409z M274,255.409h-2v1h2V255.409L274,255.409z M271.373,255.782h-1v2h1V255.782L271.373,255.782z
			 M271.373,259.782h-1v2h1V259.782L271.373,259.782z M271.373,263.782h-1v2h1V263.782L271.373,263.782z M271.373,267.782h-1v2h1
			V267.782L271.373,267.782z M273.087,270.067h-2v1h2V270.067L273.087,270.067z M277.087,270.067h-2v1h2V270.067L277.087,270.067z
			 M281.087,270.067h-2v1h2V270.067L281.087,270.067z M285.087,270.067h-2v1h2V270.067L285.087,270.067z M286,267.98h-1v2h1V267.98
			L286,267.98z M286,263.98h-1v2h1V263.98L286,263.98z M286,259.98h-1v2h1V259.98L286,259.98z"/>
	</g>
</g>
<g>
	<g>
		<path fill="#999999" d="M241.628,270.144h-2v1h1v1.571h1V270.144L241.628,270.144z M237.628,270.144h-2v1h2V270.144
			L237.628,270.144z M233.628,270.144h-2v1h2V270.144L233.628,270.144z M229.628,270.144h-2v1h2V270.144L229.628,270.144z
			 M227,270.516h-1v2h1V270.516L227,270.516z M227,274.516h-1v2h1V274.516L227,274.516z M227,278.516h-1v2h1V278.516L227,278.516z
			 M227,282.516h-1v2h1V282.516L227,282.516z M228.715,284.802h-2v1h2V284.802L228.715,284.802z M232.715,284.802h-2v1h2V284.802
			L232.715,284.802z M236.715,284.802h-2v1h2V284.802L236.715,284.802z M240.715,284.802h-2v1h2V284.802L240.715,284.802z
			 M241.628,282.715h-1v2h1V282.715L241.628,282.715z M241.628,278.715h-1v2h1V278.715L241.628,278.715z M241.628,274.715h-1v2h1
			V274.715L241.628,274.715z"/>
	</g>
</g>
<g>
	<g>
		<path fill="#999999" d="M256.392,270.144h-2v1h1v1.571h1V270.144L256.392,270.144z M252.392,270.144h-2v1h2V270.144
			L252.392,270.144z M248.392,270.144h-2v1h2V270.144L248.392,270.144z M244.392,270.144h-2v1h2V270.144L244.392,270.144z
			 M241.765,270.516h-1v2h1V270.516L241.765,270.516z M241.765,274.516h-1v2h1V274.516L241.765,274.516z M241.765,278.516h-1v2h1
			V278.516L241.765,278.516z M241.765,282.516h-1v2h1V282.516L241.765,282.516z M243.48,284.802h-2v1h2V284.802L243.48,284.802z
			 M247.48,284.802h-2v1h2V284.802L247.48,284.802z M251.48,284.802h-2v1h2V284.802L251.48,284.802z M255.48,284.802h-2v1h2V284.802
			L255.48,284.802z M256.392,282.715h-1v2h1V282.715L256.392,282.715z M256.392,278.715h-1v2h1V278.715L256.392,278.715z
			 M256.392,274.715h-1v2h1V274.715L256.392,274.715z"/>
	</g>
</g>
<g>
	<g>
		<path fill="#999999" d="M271.235,270.144h-2v1h1v1.571h1V270.144L271.235,270.144z M267.235,270.144h-2v1h2V270.144
			L267.235,270.144z M263.235,270.144h-2v1h2V270.144L263.235,270.144z M259.235,270.144h-2v1h2V270.144L259.235,270.144z
			 M256.608,270.516h-1v2h1V270.516L256.608,270.516z M256.608,274.516h-1v2h1V274.516L256.608,274.516z M256.608,278.516h-1v2h1
			V278.516L256.608,278.516z M256.608,282.516h-1v2h1V282.516L256.608,282.516z M258.322,284.802h-2v1h2V284.802L258.322,284.802z
			 M262.322,284.802h-2v1h2V284.802L262.322,284.802z M266.322,284.802h-2v1h2V284.802L266.322,284.802z M270.322,284.802h-2v1h2
			V284.802L270.322,284.802z M271.235,282.715h-1v2h1V282.715L271.235,282.715z M271.235,278.715h-1v2h1V278.715L271.235,278.715z
			 M271.235,274.715h-1v2h1V274.715L271.235,274.715z"/>
	</g>
</g>
<g>
	<g>
		<path fill="#999999" d="M286,270.144h-2v1h1v1.571h1V270.144L286,270.144z M282,270.144h-2v1h2V270.144L282,270.144z M278,270.144
			h-2v1h2V270.144L278,270.144z M274,270.144h-2v1h2V270.144L274,270.144z M271.373,270.516h-1v2h1V270.516L271.373,270.516z
			 M271.373,274.516h-1v2h1V274.516L271.373,274.516z M271.373,278.516h-1v2h1V278.516L271.373,278.516z M271.373,282.516h-1v2h1
			V282.516L271.373,282.516z M273.087,284.802h-2v1h2V284.802L273.087,284.802z M277.087,284.802h-2v1h2V284.802L277.087,284.802z
			 M281.087,284.802h-2v1h2V284.802L281.087,284.802z M285.087,284.802h-2v1h2V284.802L285.087,284.802z M286,282.715h-1v2h1
			V282.715L286,282.715z M286,278.715h-1v2h1V278.715L286,278.715z M286,274.715h-1v2h1V274.715L286,274.715z"/>
	</g>
</g>
</svg>
