<?xml version="1.0" encoding="utf-8"?>
<!-- Generator: Adobe Illustrator 17.0.0, SVG Export Plug-In . SVG Version: 6.00 Build 0)  -->
<!DOCTYPE svg PUBLIC "-//W3C//DTD SVG 1.1//EN" "http://www.w3.org/Graphics/SVG/1.1/DTD/svg11.dtd">
<svg version="1.1" id="Layer_1" xmlns="http://www.w3.org/2000/svg" xmlns:xlink="http://www.w3.org/1999/xlink" x="0px" y="0px"
	 width="20px" height="20px" viewBox="0 0 20 20" enable-background="new 0 0 20 20" xml:space="preserve">
<path fill="#00A1F0" d="M19.872,10.166c-0.047-0.053-1.182-1.305-2.956-2.572c-1.047-0.748-2.1-1.344-3.13-1.773
	c-1.305-0.544-2.579-0.82-3.786-0.82s-2.481,0.276-3.786,0.82c-1.03,0.429-2.083,1.026-3.13,1.773
	c-1.774,1.267-2.909,2.52-2.956,2.572c-0.171,0.19-0.171,0.479,0,0.669c0.047,0.053,1.182,1.305,2.956,2.572
	c1.047,0.748,2.1,1.344,3.13,1.773C7.519,15.724,8.793,16,10,16s2.481-0.276,3.786-0.82c1.03-0.429,2.083-1.026,3.13-1.773
	c1.774-1.267,2.909-2.52,2.956-2.572C20.043,10.645,20.043,10.356,19.872,10.166z M12.574,6.438C13.481,7.201,14,8.311,14,9.5
	c0,2.206-1.794,4-4,4s-4-1.794-4-4c0-1.188,0.519-2.299,1.426-3.062C8.248,6.17,9.117,6,10,6S11.752,6.17,12.574,6.438z
	 M16.317,12.606C14.784,13.698,12.444,15,10,15s-4.784-1.302-6.317-2.394c-1.157-0.824-2.042-1.658-2.489-2.106
	c0.447-0.448,1.332-1.281,2.489-2.106c0.53-0.378,1.156-0.78,1.85-1.145C5.186,7.937,5,8.704,5,9.5c0,2.757,2.243,5,5,5s5-2.243,5-5
	c0-0.796-0.186-1.563-0.533-2.251c0.694,0.365,1.32,0.768,1.85,1.145c1.157,0.824,2.042,1.658,2.489,2.106
	C18.359,10.948,17.474,11.781,16.317,12.606z"/>
</svg>
