<?xml version="1.0" encoding="utf-8"?>
<!-- Generator: Adobe Illustrator 17.0.0, SVG Export Plug-In . SVG Version: 6.00 Build 0)  -->
<!DOCTYPE svg PUBLIC "-//W3C//DTD SVG 1.1//EN" "http://www.w3.org/Graphics/SVG/1.1/DTD/svg11.dtd">
<svg version="1.1" id="Capa_1" xmlns="http://www.w3.org/2000/svg" xmlns:xlink="http://www.w3.org/1999/xlink" x="0px" y="0px"
	 width="60px" height="63.595px" viewBox="299.711 224.203 60 63.595" enable-background="new 299.711 224.203 60 63.595"
	 xml:space="preserve">
<g>
	<g>
		<path fill="#999999" d="M341.4,277.378v-0.318v-52.006v-0.85l-19.802,10.42l-21.886-10.42v0.832v52.018v0.326l21.886,10.42
			L341.4,277.378z M320.556,286.135l-19.802-9.41v-50.86l19.802,9.411V286.135z"/>
		<polygon fill="#C7C7C7" points="317.429,251.626 317.429,237.408 317.429,237.072 303.88,230.521 303.88,231.333 303.88,245.552 
			303.88,245.887 317.429,252.437 		"/>
	</g>
</g>
<g>
	<path fill="#333333" d="M342.16,246.092c12.935,0.867,15.099,2.263,15.099,6.804c0,4.507-16.044,8.317-35.127,8.375l4.367-2.476
		c0.478-0.27,0.478-0.713,0-0.984c-0.478-0.27-1.255-0.27-1.734,0l-7.337,4.161l7.337,4.163c0.24,0.138,0.554,0.203,0.868,0.203
		c0.316,0,0.63-0.068,0.868-0.203c0.478-0.27,0.478-0.713,0-0.984l-4.387-2.489c21.111-0.058,37.596-4.323,37.596-9.766
		c0-5.481-3.654-7.381-17.557-8.282"/>
</g>
<g display="none">
	<g display="inline">
		<polygon points="399.992,399.552 457.255,342.949 457.255,334.056 399.992,277.453 390.772,286.346 436.306,332.213 
			111.348,332.213 111.348,344.792 436.306,344.792 390.772,390.659 		"/>
		<polygon points="112.53,151.668 54.745,208.271 54.745,217.164 112.53,273.767 122.014,264.874 76.738,219.007 400.652,219.007 
			400.652,206.429 76.738,206.429 122.014,160.561 		"/>
	</g>
</g>
</svg>
