<?xml version="1.0" encoding="iso-8859-1"?>
<!-- Generator: Adobe Illustrator 18.0.0, SVG Export Plug-In . SVG Version: 6.00 Build 0)  -->
<!DOCTYPE svg PUBLIC "-//W3C//DTD SVG 1.1//EN" "http://www.w3.org/Graphics/SVG/1.1/DTD/svg11.dtd">
<svg xmlns="http://www.w3.org/2000/svg" xmlns:xlink="http://www.w3.org/1999/xlink" version="1.1" id="Capa_1" x="0px" y="0px" viewBox="0 0 463.624 463.624" style="enable-background:new 0 0 463.624 463.624;" xml:space="preserve" width="512px" height="512px">
<path d="M410.282,76.684h-35.978V57.54c0-15.373-5.988-29.822-16.855-40.678C346.587,5.988,332.137,0,316.764,0  c-31.733,0-57.55,25.813-57.55,57.54v19.144H53.342c-8.284,0-15,6.716-15,15v239.15c0,3.978,1.58,7.793,4.393,10.606l117.78,117.79  c2.813,2.813,6.628,4.394,10.607,4.394h239.16c8.284,0,15-6.716,15-15V91.684C425.282,83.399,418.566,76.684,410.282,76.684z   M279.215,57.54c0-20.699,16.845-37.54,37.55-37.54c10.027,0,19.451,3.905,26.543,11.004c7.092,7.085,10.997,16.509,10.997,26.536  v19.144h-6.47V60.61c0-8.284-3.228-16.084-9.108-21.981c-5.878-5.861-13.678-9.089-21.962-9.089c-17.138,0-31.08,13.938-31.08,31.07  v16.073h-6.47V57.54z M305.684,106.684h48.62v84.757c0,13.404-10.905,24.31-24.31,24.31c-6.493,0-12.598-2.529-17.189-7.121  s-7.121-10.696-7.121-17.188V106.684z M327.835,76.684h-22.15V60.61c0-6.104,4.971-11.07,11.08-11.07  c2.953,0,5.737,1.154,7.819,3.231c2.097,2.102,3.251,4.886,3.251,7.839V76.684z M156.122,412.409l-66.569-66.575h66.569V412.409z   M395.282,433.624h-209.16v-102.79c0-8.284-6.716-15-15-15H68.342v-209.15h217.342v84.757c0,11.835,4.609,22.961,12.979,31.331  c8.37,8.369,19.497,12.979,31.332,12.979c24.433,0,44.31-19.877,44.31-44.31v-84.757h20.978V433.624z" fill="#00a1f0"/>
<g>
</g>
<g>
</g>
<g>
</g>
<g>
</g>
<g>
</g>
<g>
</g>
<g>
</g>
<g>
</g>
<g>
</g>
<g>
</g>
<g>
</g>
<g>
</g>
<g>
</g>
<g>
</g>
<g>
</g>
</svg>
