<?xml version="1.0" encoding="iso-8859-1"?>
<!-- Generator: Adobe Illustrator 18.0.0, SVG Export Plug-In . SVG Version: 6.00 Build 0)  -->
<!DOCTYPE svg PUBLIC "-//W3C//DTD SVG 1.1//EN" "http://www.w3.org/Graphics/SVG/1.1/DTD/svg11.dtd">
<svg xmlns="http://www.w3.org/2000/svg" xmlns:xlink="http://www.w3.org/1999/xlink" version="1.1" id="Capa_1" x="0px" y="0px" viewBox="0 0 310.833 310.833" style="enable-background:new 0 0 310.833 310.833;" xml:space="preserve" width="512px" height="512px">
<g>
	<path d="M69.023,195.681l27.098,27.098c-8.151,0-64.237,0-71.121,0v-76h8.5v-25H0v126c11.31,0,85.011,0,96.121,0l-27.098,27.098   l17.678,17.678l57.275-57.275l-57.275-57.275L69.023,195.681z" fill="#00a1f0"/>
	<polygon points="277.333,121.399 277.333,146.399 285.833,146.399 285.833,222.399 167.167,222.399 180.047,235.279    167.927,247.399 310.833,247.399 310.833,121.399  " fill="#00a1f0"/>
	<path d="M238.166,159.988V40.844h-20.642V18.278h-47.538v22.565H73.289v119.145C80.543,159.988,230.963,159.988,238.166,159.988z    M155.728,57.926c23.467,0,42.49,19.024,42.49,42.49c0,23.467-19.023,42.49-42.49,42.49s-42.49-19.024-42.49-42.49   C113.238,76.95,132.261,57.926,155.728,57.926z" fill="#00a1f0"/>
</g>
<g>
</g>
<g>
</g>
<g>
</g>
<g>
</g>
<g>
</g>
<g>
</g>
<g>
</g>
<g>
</g>
<g>
</g>
<g>
</g>
<g>
</g>
<g>
</g>
<g>
</g>
<g>
</g>
<g>
</g>
</svg>
