<?xml version="1.0" encoding="utf-8"?>
<!-- Generator: Adobe Illustrator 17.0.0, SVG Export Plug-In . SVG Version: 6.00 Build 0)  -->
<!DOCTYPE svg PUBLIC "-//W3C//DTD SVG 1.1//EN" "http://www.w3.org/Graphics/SVG/1.1/DTD/svg11.dtd">
<svg version="1.1" id="Capa_1" xmlns="http://www.w3.org/2000/svg" xmlns:xlink="http://www.w3.org/1999/xlink" x="0px" y="0px"
	 width="60px" height="59.604px" viewBox="226 226.197 60 59.604" enable-background="new 226 226.197 60 59.604"
	 xml:space="preserve">
<g>
	<path fill="#999999" d="M285.057,226.197h-43.161c-0.521,0-0.943,0.423-0.943,0.944v3.77h-6.999c-0.271,0-0.531,0.118-0.71,0.322
		c-0.179,0.206-0.26,0.477-0.225,0.747l0.367,2.709h-6.442c-0.296,0-0.577,0.14-0.755,0.377c-0.178,0.237-0.234,0.544-0.15,0.831
		l14.358,49.224c0.12,0.413,0.496,0.681,0.907,0.681c0.087,0,43.753,0,43.753,0c0.521,0,0.944-0.421,0.944-0.944v-57.716
		C286,226.62,285.577,226.197,285.057,226.197z M240.953,232.799v43.719l-5.918-43.719H240.953L240.953,232.799z M233.641,236.576
		l4.711,34.794l-10.15-34.794H233.641z M284.113,283.914h-41.274v-55.829h41.275L284.113,283.914L284.113,283.914L284.113,283.914z
		 M259.348,235.538h-15.003v-4.247h15.002L259.348,235.538L259.348,235.538z M282.701,235.538h-15.003v-4.247h15.002
		L282.701,235.538L282.701,235.538z M260.316,233.415c0-1.745,1.415-3.161,3.16-3.161c1.745,0,3.162,1.416,3.162,3.161
		c0,1.746-1.417,3.161-3.162,3.161C261.731,236.576,260.316,235.161,260.316,233.415z M280.477,256.424h-12.778v-14.343h12.778
		L280.477,256.424L280.477,256.424z M261.589,244.189h-15.71v-1.573h15.71V244.189z M245.879,248.654h15.71v1.573h-15.71V248.654z
		 M246.056,254.83h15.71v1.573h-15.71V254.83z M245.879,261.051h34.598v1.573h-34.598V261.051z M245.879,267.263h34.598v1.573
		h-34.598V267.263z M245.879,273.395h34.598v1.574h-34.598V273.395z"/>
</g>
<rect x="267.699" y="242.081" fill="#333333" width="12.778" height="14.343"/>
</svg>
